<mxfile host="app.diagrams.net" modified="2020-12-11T09:19:24.642Z" agent="5.0 (Windows NT 6.1; Win64; x64) AppleWebKit/537.36 (KHTML, like Gecko) Chrome/87.0.4280.88 Safari/537.36" etag="KH4Qz34wvW2Q70Y8JwOG" version="13.10.9" type="github">
  <diagram id="X3rwER5O2tSwiBM2DnEz" name="第 1 页">
    <mxGraphModel dx="1193" dy="927" grid="1" gridSize="10" guides="1" tooltips="1" connect="1" arrows="1" fold="1" page="1" pageScale="1" pageWidth="827" pageHeight="1169" math="0" shadow="0">
      <root>
        <mxCell id="0" />
        <mxCell id="1" parent="0" />
        <mxCell id="Hs02XXk1NxbS6VB0PE32-34" value="" style="rounded=0;whiteSpace=wrap;html=1;fontSize=16;fillColor=#f9f7ed;strokeColor=none;" vertex="1" parent="1">
          <mxGeometry x="70" y="204.5" width="490" height="760" as="geometry" />
        </mxCell>
        <mxCell id="Hs02XXk1NxbS6VB0PE32-19" style="edgeStyle=orthogonalEdgeStyle;rounded=0;orthogonalLoop=1;jettySize=auto;html=1;fontSize=16;" edge="1" parent="1" target="Hs02XXk1NxbS6VB0PE32-4">
          <mxGeometry relative="1" as="geometry">
            <mxPoint x="300" y="180" as="sourcePoint" />
          </mxGeometry>
        </mxCell>
        <mxCell id="Hs02XXk1NxbS6VB0PE32-2" value="应用程序" style="rounded=1;whiteSpace=wrap;html=1;fontSize=16;fillColor=#ffcc99;shadow=1;strokeColor=none;" vertex="1" parent="1">
          <mxGeometry x="70" y="120" width="480" height="60" as="geometry" />
        </mxCell>
        <mxCell id="Hs02XXk1NxbS6VB0PE32-20" style="edgeStyle=orthogonalEdgeStyle;rounded=0;orthogonalLoop=1;jettySize=auto;html=1;entryX=0.5;entryY=0;entryDx=0;entryDy=0;fontSize=16;" edge="1" parent="1" source="Hs02XXk1NxbS6VB0PE32-4" target="Hs02XXk1NxbS6VB0PE32-6">
          <mxGeometry relative="1" as="geometry" />
        </mxCell>
        <mxCell id="Hs02XXk1NxbS6VB0PE32-22" style="edgeStyle=orthogonalEdgeStyle;rounded=0;orthogonalLoop=1;jettySize=auto;html=1;fontSize=16;" edge="1" parent="1" target="Hs02XXk1NxbS6VB0PE32-5">
          <mxGeometry relative="1" as="geometry">
            <mxPoint x="440" y="292" as="sourcePoint" />
          </mxGeometry>
        </mxCell>
        <mxCell id="Hs02XXk1NxbS6VB0PE32-4" value="系统调用" style="rounded=1;whiteSpace=wrap;html=1;fontSize=16;fillColor=#cce5ff;strokeColor=none;shadow=1;" vertex="1" parent="1">
          <mxGeometry x="80" y="230" width="440" height="60" as="geometry" />
        </mxCell>
        <mxCell id="Hs02XXk1NxbS6VB0PE32-21" style="edgeStyle=orthogonalEdgeStyle;rounded=0;orthogonalLoop=1;jettySize=auto;html=1;entryX=0.818;entryY=0;entryDx=0;entryDy=0;entryPerimeter=0;fontSize=16;" edge="1" parent="1" source="Hs02XXk1NxbS6VB0PE32-5" target="Hs02XXk1NxbS6VB0PE32-6">
          <mxGeometry relative="1" as="geometry" />
        </mxCell>
        <mxCell id="Hs02XXk1NxbS6VB0PE32-5" value="LVS" style="rounded=1;whiteSpace=wrap;html=1;fontSize=16;fillColor=#e1d5e7;strokeColor=none;shadow=1;" vertex="1" parent="1">
          <mxGeometry x="380" y="330" width="120" height="60" as="geometry" />
        </mxCell>
        <mxCell id="Hs02XXk1NxbS6VB0PE32-23" style="edgeStyle=orthogonalEdgeStyle;rounded=0;orthogonalLoop=1;jettySize=auto;html=1;entryX=0.5;entryY=0;entryDx=0;entryDy=0;fontSize=16;exitX=0.139;exitY=1;exitDx=0;exitDy=0;exitPerimeter=0;" edge="1" parent="1" source="Hs02XXk1NxbS6VB0PE32-6" target="Hs02XXk1NxbS6VB0PE32-7">
          <mxGeometry relative="1" as="geometry" />
        </mxCell>
        <mxCell id="Hs02XXk1NxbS6VB0PE32-24" style="edgeStyle=orthogonalEdgeStyle;rounded=0;orthogonalLoop=1;jettySize=auto;html=1;entryX=0.5;entryY=0;entryDx=0;entryDy=0;fontSize=16;" edge="1" parent="1" source="Hs02XXk1NxbS6VB0PE32-6" target="Hs02XXk1NxbS6VB0PE32-8">
          <mxGeometry relative="1" as="geometry" />
        </mxCell>
        <mxCell id="Hs02XXk1NxbS6VB0PE32-46" style="edgeStyle=orthogonalEdgeStyle;rounded=0;orthogonalLoop=1;jettySize=auto;html=1;entryX=0.5;entryY=0;entryDx=0;entryDy=0;shadow=0;fontSize=18;exitX=0.864;exitY=1;exitDx=0;exitDy=0;exitPerimeter=0;" edge="1" parent="1" source="Hs02XXk1NxbS6VB0PE32-6" target="Hs02XXk1NxbS6VB0PE32-11">
          <mxGeometry relative="1" as="geometry" />
        </mxCell>
        <mxCell id="Hs02XXk1NxbS6VB0PE32-6" value="Socket" style="rounded=1;whiteSpace=wrap;html=1;fontSize=16;fillColor=#fff2cc;shadow=1;strokeColor=none;" vertex="1" parent="1">
          <mxGeometry x="80" y="410" width="440" height="60" as="geometry" />
        </mxCell>
        <mxCell id="Hs02XXk1NxbS6VB0PE32-26" style="edgeStyle=orthogonalEdgeStyle;rounded=0;orthogonalLoop=1;jettySize=auto;html=1;entryX=0.136;entryY=-0.05;entryDx=0;entryDy=0;entryPerimeter=0;fontSize=16;" edge="1" parent="1" source="Hs02XXk1NxbS6VB0PE32-7" target="Hs02XXk1NxbS6VB0PE32-9">
          <mxGeometry relative="1" as="geometry" />
        </mxCell>
        <mxCell id="Hs02XXk1NxbS6VB0PE32-7" value="TCP" style="rounded=1;whiteSpace=wrap;html=1;fontSize=16;fillColor=#d5e8d4;shadow=1;strokeColor=none;" vertex="1" parent="1">
          <mxGeometry x="80" y="500" width="120" height="60" as="geometry" />
        </mxCell>
        <mxCell id="Hs02XXk1NxbS6VB0PE32-27" style="edgeStyle=orthogonalEdgeStyle;rounded=0;orthogonalLoop=1;jettySize=auto;html=1;entryX=0.5;entryY=0;entryDx=0;entryDy=0;fontSize=16;" edge="1" parent="1" source="Hs02XXk1NxbS6VB0PE32-8" target="Hs02XXk1NxbS6VB0PE32-9">
          <mxGeometry relative="1" as="geometry" />
        </mxCell>
        <mxCell id="Hs02XXk1NxbS6VB0PE32-8" value="UDP" style="rounded=1;whiteSpace=wrap;html=1;fontSize=16;fillColor=#d5e8d4;shadow=1;strokeColor=none;" vertex="1" parent="1">
          <mxGeometry x="240" y="500" width="120" height="60" as="geometry" />
        </mxCell>
        <mxCell id="Hs02XXk1NxbS6VB0PE32-28" style="edgeStyle=orthogonalEdgeStyle;rounded=0;orthogonalLoop=1;jettySize=auto;html=1;entryX=0.5;entryY=0;entryDx=0;entryDy=0;fontSize=16;" edge="1" parent="1" source="Hs02XXk1NxbS6VB0PE32-9" target="Hs02XXk1NxbS6VB0PE32-12">
          <mxGeometry relative="1" as="geometry" />
        </mxCell>
        <mxCell id="Hs02XXk1NxbS6VB0PE32-29" style="edgeStyle=orthogonalEdgeStyle;rounded=0;orthogonalLoop=1;jettySize=auto;html=1;entryX=0.5;entryY=0;entryDx=0;entryDy=0;fontSize=16;exitX=0.859;exitY=0.983;exitDx=0;exitDy=0;exitPerimeter=0;" edge="1" parent="1" source="Hs02XXk1NxbS6VB0PE32-9" target="Hs02XXk1NxbS6VB0PE32-13">
          <mxGeometry relative="1" as="geometry" />
        </mxCell>
        <mxCell id="Hs02XXk1NxbS6VB0PE32-9" value="IP" style="rounded=1;whiteSpace=wrap;html=1;fontSize=16;fillColor=#ffcccc;shadow=1;strokeColor=none;" vertex="1" parent="1">
          <mxGeometry x="80" y="610" width="440" height="60" as="geometry" />
        </mxCell>
        <mxCell id="Hs02XXk1NxbS6VB0PE32-11" value="ICMP" style="rounded=1;whiteSpace=wrap;html=1;fontSize=16;fillColor=#ffcccc;shadow=1;strokeColor=none;" vertex="1" parent="1">
          <mxGeometry x="400" y="570" width="120" height="40" as="geometry" />
        </mxCell>
        <mxCell id="Hs02XXk1NxbS6VB0PE32-39" style="edgeStyle=orthogonalEdgeStyle;rounded=0;orthogonalLoop=1;jettySize=auto;html=1;entryX=0.5;entryY=0;entryDx=0;entryDy=0;fontSize=18;fillColor=#ffcc99;shadow=1;strokeColor=none;" edge="1" parent="1" target="Hs02XXk1NxbS6VB0PE32-14">
          <mxGeometry relative="1" as="geometry">
            <mxPoint x="205" y="832" as="sourcePoint" />
          </mxGeometry>
        </mxCell>
        <mxCell id="Hs02XXk1NxbS6VB0PE32-41" style="edgeStyle=orthogonalEdgeStyle;rounded=0;orthogonalLoop=1;jettySize=auto;html=1;fontSize=18;fillColor=#ffcc99;shadow=1;strokeColor=none;" edge="1" parent="1" target="Hs02XXk1NxbS6VB0PE32-15">
          <mxGeometry relative="1" as="geometry">
            <mxPoint x="414" y="832" as="sourcePoint" />
          </mxGeometry>
        </mxCell>
        <mxCell id="Hs02XXk1NxbS6VB0PE32-42" style="edgeStyle=orthogonalEdgeStyle;rounded=0;orthogonalLoop=1;jettySize=auto;html=1;entryX=0.5;entryY=0;entryDx=0;entryDy=0;shadow=0;fontSize=18;" edge="1" parent="1" target="Hs02XXk1NxbS6VB0PE32-14">
          <mxGeometry relative="1" as="geometry">
            <mxPoint x="205" y="831" as="sourcePoint" />
          </mxGeometry>
        </mxCell>
        <mxCell id="Hs02XXk1NxbS6VB0PE32-43" style="edgeStyle=orthogonalEdgeStyle;rounded=0;orthogonalLoop=1;jettySize=auto;html=1;entryX=0.5;entryY=0;entryDx=0;entryDy=0;shadow=0;fontSize=18;" edge="1" parent="1" target="Hs02XXk1NxbS6VB0PE32-15">
          <mxGeometry relative="1" as="geometry">
            <mxPoint x="414" y="831" as="sourcePoint" />
          </mxGeometry>
        </mxCell>
        <mxCell id="Hs02XXk1NxbS6VB0PE32-12" value="MAC" style="rounded=1;whiteSpace=wrap;html=1;fontSize=16;fillColor=#ffcc99;shadow=1;strokeColor=none;" vertex="1" parent="1">
          <mxGeometry x="80" y="770" width="440" height="60" as="geometry" />
        </mxCell>
        <mxCell id="Hs02XXk1NxbS6VB0PE32-31" style="edgeStyle=orthogonalEdgeStyle;rounded=0;orthogonalLoop=1;jettySize=auto;html=1;entryX=0.864;entryY=0;entryDx=0;entryDy=0;entryPerimeter=0;fontSize=16;fillColor=#ffcc99;shadow=1;strokeColor=none;" edge="1" parent="1" source="Hs02XXk1NxbS6VB0PE32-13" target="Hs02XXk1NxbS6VB0PE32-12">
          <mxGeometry relative="1" as="geometry" />
        </mxCell>
        <mxCell id="Hs02XXk1NxbS6VB0PE32-45" style="edgeStyle=orthogonalEdgeStyle;rounded=0;orthogonalLoop=1;jettySize=auto;html=1;shadow=0;fontSize=18;" edge="1" parent="1" source="Hs02XXk1NxbS6VB0PE32-13">
          <mxGeometry relative="1" as="geometry">
            <mxPoint x="460" y="770" as="targetPoint" />
          </mxGeometry>
        </mxCell>
        <mxCell id="Hs02XXk1NxbS6VB0PE32-13" value="ARP" style="rounded=1;whiteSpace=wrap;html=1;fontSize=16;fillColor=#ffcc99;shadow=1;strokeColor=none;" vertex="1" parent="1">
          <mxGeometry x="400" y="700" width="120" height="40" as="geometry" />
        </mxCell>
        <mxCell id="Hs02XXk1NxbS6VB0PE32-32" style="edgeStyle=orthogonalEdgeStyle;rounded=0;orthogonalLoop=1;jettySize=auto;html=1;fontSize=16;" edge="1" parent="1" source="Hs02XXk1NxbS6VB0PE32-14" target="Hs02XXk1NxbS6VB0PE32-17">
          <mxGeometry relative="1" as="geometry" />
        </mxCell>
        <mxCell id="Hs02XXk1NxbS6VB0PE32-14" value="网卡驱动程序" style="rounded=1;whiteSpace=wrap;html=1;fontSize=16;fillColor=#ffcc99;shadow=1;strokeColor=none;" vertex="1" parent="1">
          <mxGeometry x="140" y="880" width="130" height="60" as="geometry" />
        </mxCell>
        <mxCell id="Hs02XXk1NxbS6VB0PE32-33" style="edgeStyle=orthogonalEdgeStyle;rounded=0;orthogonalLoop=1;jettySize=auto;html=1;fontSize=16;" edge="1" parent="1" source="Hs02XXk1NxbS6VB0PE32-15" target="Hs02XXk1NxbS6VB0PE32-18">
          <mxGeometry relative="1" as="geometry" />
        </mxCell>
        <mxCell id="Hs02XXk1NxbS6VB0PE32-15" value="网卡驱动程序" style="rounded=1;whiteSpace=wrap;html=1;fontSize=16;fillColor=#ffcc99;shadow=1;strokeColor=none;" vertex="1" parent="1">
          <mxGeometry x="349" y="880" width="130" height="60" as="geometry" />
        </mxCell>
        <mxCell id="Hs02XXk1NxbS6VB0PE32-17" value="网卡" style="rounded=1;whiteSpace=wrap;html=1;fontSize=16;fillColor=#eeeeee;shadow=1;strokeColor=none;" vertex="1" parent="1">
          <mxGeometry x="140" y="980" width="130" height="60" as="geometry" />
        </mxCell>
        <mxCell id="Hs02XXk1NxbS6VB0PE32-18" value="网卡" style="rounded=1;whiteSpace=wrap;html=1;fontSize=16;shadow=1;fillColor=#eeeeee;strokeColor=none;" vertex="1" parent="1">
          <mxGeometry x="349" y="980" width="130" height="60" as="geometry" />
        </mxCell>
        <mxCell id="Hs02XXk1NxbS6VB0PE32-35" value="内核" style="text;html=1;align=center;verticalAlign=middle;resizable=0;points=[];autosize=1;fontSize=18;fontStyle=1" vertex="1" parent="1">
          <mxGeometry x="80" y="330" width="50" height="30" as="geometry" />
        </mxCell>
      </root>
    </mxGraphModel>
  </diagram>
</mxfile>
